<svg width="24" height="24" viewBox="0 0 24 24" fill="none" xmlns="http://www.w3.org/2000/svg">
<path d="M11.9999 14.1749C11.6831 14.1749 11.4081 14.0583 11.1749 13.8251C10.9417 13.5915 10.8251 13.3165 10.8251 13.0001C10.8251 12.6833 10.9417 12.4083 11.1749 12.1751C11.4081 11.9415 11.6915 11.8247 12.0251 11.8247C12.3415 11.8247 12.6123 11.9415 12.8375 12.1751C13.0623 12.4083 13.1747 12.6833 13.1747 13.0001C13.1747 13.3165 13.0623 13.5915 12.8375 13.8251C12.6123 14.0583 12.3331 14.1749 11.9999 14.1749ZM7.99975 14.1749C7.68335 14.1749 7.40835 14.0583 7.17475 13.8251C6.94155 13.5915 6.82495 13.3165 6.82495 13.0001C6.82495 12.6833 6.94155 12.4083 7.17475 12.1751C7.40835 11.9415 7.68335 11.8247 7.99975 11.8247C8.31655 11.8247 8.59155 11.9415 8.82475 12.1751C9.05835 12.4083 9.17515 12.6833 9.17515 13.0001C9.17515 13.3165 9.05835 13.5915 8.82475 13.8251C8.59155 14.0583 8.31655 14.1749 7.99975 14.1749ZM15.9749 14.1749C15.6749 14.1749 15.4083 14.0583 15.1751 13.8251C14.9415 13.5915 14.8247 13.3165 14.8247 13.0001C14.8247 12.6833 14.9415 12.4083 15.1751 12.1751C15.4083 11.9415 15.6833 11.8247 16.0001 11.8247C16.3165 11.8247 16.5915 11.9415 16.8251 12.1751C17.0583 12.4083 17.1749 12.6833 17.1749 13.0001C17.1749 13.3165 17.0583 13.5915 16.8251 13.8251C16.5915 14.0583 16.3081 14.1749 15.9749 14.1749ZM11.9999 18.1751C11.6831 18.1751 11.4081 18.0583 11.1749 17.8247C10.9417 17.5915 10.8251 17.3165 10.8251 16.9997C10.8251 16.6833 10.9417 16.4083 11.1749 16.1747C11.4081 15.9415 11.6915 15.8249 12.0251 15.8249C12.3415 15.8249 12.6123 15.9415 12.8375 16.1747C13.0623 16.4083 13.1747 16.6917 13.1747 17.0249C13.1747 17.3249 13.0623 17.5915 12.8375 17.8247C12.6123 18.0583 12.3331 18.1751 11.9999 18.1751ZM7.99975 18.1751C7.68335 18.1751 7.40835 18.0583 7.17475 17.8247C6.94155 17.5915 6.82495 17.3165 6.82495 16.9997C6.82495 16.6833 6.94155 16.4083 7.17475 16.1747C7.40835 15.9415 7.68335 15.8249 7.99975 15.8249C8.31655 15.8249 8.59155 15.9415 8.82475 16.1747C9.05835 16.4083 9.17515 16.6917 9.17515 17.0249C9.17515 17.3249 9.05835 17.5915 8.82475 17.8247C8.59155 18.0583 8.31655 18.1751 7.99975 18.1751ZM15.9749 18.1751C15.6749 18.1751 15.4083 18.0583 15.1751 17.8247C14.9415 17.5915 14.8247 17.3165 14.8247 16.9997C14.8247 16.6833 14.9415 16.4083 15.1751 16.1747C15.4083 15.9415 15.6833 15.8249 16.0001 15.8249C16.3165 15.8249 16.5915 15.9415 16.8251 16.1747C17.0583 16.4083 17.1749 16.6917 17.1749 17.0249C17.1749 17.3249 17.0583 17.5915 16.8251 17.8247C16.5915 18.0583 16.3081 18.1751 15.9749 18.1751ZM4.92475 22.7501C4.19155 22.7501 3.56655 22.4833 3.04975 21.9497C2.53335 21.4165 2.27515 20.7999 2.27515 20.0999V5.5751C2.27515 4.8415 2.53335 4.2123 3.04975 3.6875C3.56655 3.1623 4.19155 2.8997 4.92475 2.8997H6.02515V2.3501C6.02515 2.0665 6.14175 1.8081 6.37495 1.5749C6.60815 1.3417 6.87475 1.2251 7.17475 1.2251C7.49155 1.2251 7.75415 1.3417 7.96255 1.5749C8.17095 1.8081 8.27515 2.0665 8.27515 2.3501V2.8997H15.7247V2.3501C15.7247 2.0665 15.8331 1.8081 16.0499 1.5749C16.2667 1.3417 16.5333 1.2251 16.8497 1.2251C17.1665 1.2251 17.4333 1.3417 17.6501 1.5749C17.8665 1.8081 17.9747 2.0665 17.9747 2.3501V2.8997H19.0751C19.8083 2.8997 20.4375 3.1623 20.9627 3.6875C21.4875 4.2123 21.7499 4.8415 21.7499 5.5751V20.0999C21.7499 20.7999 21.4875 21.4165 20.9627 21.9497C20.4375 22.4833 19.8083 22.7501 19.0751 22.7501H4.92475ZM4.92475 20.0999H19.0751V9.7997H4.92475V20.0999Z" fill="#3477B4"/>
</svg>
