<svg width="149" height="149" viewBox="0 0 149 149" fill="none" xmlns="http://www.w3.org/2000/svg">
<path d="M68.4857 65.2187L59.0312 56.1107C58 54.9639 56.7103 54.4194 55.162 54.4772C53.6165 54.5349 52.2704 55.1358 51.1236 56.2798C49.9796 57.4265 49.4076 58.8015 49.4076 60.4048C49.4076 62.0108 49.9796 63.3858 51.1236 64.5298L70.2018 83.4388C71.233 84.8138 72.5228 85.4724 74.071 85.4147C75.6165 85.3569 77.0204 84.6983 78.2826 83.4388L97.7031 64.3607C98.8499 63.2139 99.3944 61.8664 99.3366 60.3182C99.2789 58.7727 98.6766 57.4265 97.5299 56.2798C96.3859 55.1358 95.0109 54.5638 93.4049 54.5638C91.8016 54.5638 90.4266 55.1358 89.2799 56.2798L80.1719 65.2187V38.7485C80.1719 37.2608 79.571 35.9435 78.3692 34.7968C77.1647 33.65 75.8173 33.0767 74.3268 33.0767C72.608 33.0767 71.2055 33.65 70.1192 34.7968C69.0303 35.9435 68.4857 37.3185 68.4857 38.9218V65.2187ZM45.9674 108.189H103.375C104.866 108.189 106.183 107.615 107.327 106.469C108.474 105.322 109.047 103.947 109.047 102.344C109.047 100.853 108.474 99.507 107.327 98.3053C106.183 97.1008 104.808 96.4985 103.202 96.4985H45.7982C44.1922 96.4985 42.8172 97.1008 41.6732 98.3053C40.5265 99.507 39.9531 100.853 39.9531 102.344C39.9531 104.062 40.5265 105.466 41.6732 106.555C42.8172 107.644 44.2486 108.189 45.9674 108.189ZM74.5 148.234C64.1875 148.234 54.5047 146.344 45.4518 142.562C36.4015 138.781 28.5819 133.596 21.9929 127.007C15.4039 120.418 10.2188 112.598 6.4375 103.548C2.65625 94.4952 0.765625 84.8124 0.765625 74.4999C0.765625 64.1874 2.62738 54.5335 6.35088 45.5383C10.0744 36.543 15.2595 28.7234 21.9062 22.0794C28.553 15.4327 36.4015 10.1898 45.4518 6.35079C54.5047 2.51179 64.1875 0.592285 74.5 0.592285C84.8125 0.592285 94.4952 2.48291 103.548 6.26416C112.598 10.0454 120.447 15.2594 127.094 21.9062C133.74 28.5529 138.954 36.3739 142.736 45.3692C146.517 54.3617 148.408 64.0719 148.408 74.4999C148.408 84.8124 146.488 94.4952 142.649 103.548C138.81 112.598 133.567 120.447 126.921 127.094C120.277 133.74 112.457 138.926 103.462 142.649C94.4664 146.373 84.8125 148.234 74.5 148.234Z" fill="#3477B4"/>
</svg>
