<svg width="24" height="24" viewBox="0 0 24 24" fill="none" xmlns="http://www.w3.org/2000/svg">
<path d="M14.4 16.0752C14.6168 16.3084 14.896 16.4208 15.2376 16.4124C15.5792 16.404 15.8584 16.2832 16.0752 16.05C16.3084 15.85 16.425 15.575 16.425 15.225C16.425 14.875 16.3166 14.5834 16.0998 14.3502L13.2 11.5002V7.99976C13.2 7.69976 13.0916 7.43736 12.8748 7.21256C12.6584 6.98736 12.3918 6.87476 12.075 6.87476C11.7418 6.87476 11.4584 6.98736 11.2248 7.21256C10.9916 7.43736 10.875 7.70816 10.875 8.02496V11.925C10.875 12.0918 10.9084 12.2544 10.9752 12.4128C11.0416 12.5708 11.1498 12.7166 11.2998 12.8502L14.4 16.0752ZM12 22.725C10.5332 22.725 9.14162 22.4458 7.82522 21.8874C6.50842 21.329 5.36662 20.5666 4.39982 19.6002C3.43342 18.6334 2.67102 17.4916 2.11262 16.1748C1.55422 14.8584 1.27502 13.4668 1.27502 12C1.27502 10.5168 1.55422 9.12516 2.11262 7.82516C2.67102 6.52516 3.43342 5.39176 4.39982 4.42496C5.36662 3.45816 6.50842 2.68736 7.82522 2.11256C9.14162 1.53736 10.5332 1.24976 12 1.24976C13.4832 1.24976 14.8748 1.53736 16.1748 2.11256C17.4748 2.68736 18.6082 3.45816 19.575 4.42496C20.5418 5.39176 21.3126 6.52516 21.8874 7.82516C22.4626 9.12516 22.7502 10.5168 22.7502 12C22.7502 13.4668 22.4626 14.8584 21.8874 16.1748C21.3126 17.4916 20.5418 18.6334 19.575 19.6002C18.6082 20.5666 17.4748 21.329 16.1748 21.8874C14.8748 22.4458 13.4832 22.725 12 22.725Z" fill="#3477B4"/>
</svg>
