<svg width="38" height="46" viewBox="0 0 38 46" fill="none" xmlns="http://www.w3.org/2000/svg">
<path d="M6.29124 45.3438C4.79874 45.3438 3.50541 44.8054 2.41124 43.7288C1.31791 42.6529 0.77124 41.3508 0.77124 39.8225V6.17751C0.77124 4.64918 1.31791 3.33834 2.41124 2.24501C3.50541 1.15084 4.79874 0.60376 6.29124 0.60376H22.1775C22.9408 0.60376 23.6612 0.751676 24.3387 1.04751C25.0154 1.34251 25.5971 1.75043 26.0837 2.27126L35.5625 11.6463C36.0833 12.2013 36.5 12.8175 36.8125 13.495C37.125 14.1717 37.2812 14.8921 37.2812 15.6563V39.8225C37.2812 41.3508 36.7258 42.6529 35.615 43.7288C34.5033 44.8054 33.2012 45.3438 31.7087 45.3438H6.29124ZM21.6037 13.365C21.6037 14.1633 21.8642 14.8229 22.385 15.3438C22.9058 15.8646 23.5658 16.125 24.365 16.125H31.7087L21.6037 6.17751V13.365ZM17.2287 29.7188V34.51C17.2287 34.9617 17.4025 35.37 17.75 35.735C18.0975 36.0992 18.5142 36.2813 19 36.2813C19.4858 36.2813 19.9025 36.0992 20.25 35.735C20.5975 35.37 20.7712 34.9617 20.7712 34.51V29.7188H25.615C26.0658 29.7188 26.4737 29.545 26.8387 29.1975C27.2029 28.8508 27.385 28.4171 27.385 27.8963C27.385 27.4096 27.2029 27.0017 26.8387 26.6725C26.4737 26.3425 26.0658 26.1775 25.615 26.1775H20.7712V21.2813C20.7712 20.8296 20.5975 20.4304 20.25 20.0838C19.9025 19.7363 19.4858 19.5625 19 19.5625C18.5142 19.5625 18.0975 19.7363 17.75 20.0838C17.4025 20.4304 17.2287 20.8296 17.2287 21.2813V26.1775H12.385C11.9342 26.1775 11.5262 26.3425 11.1612 26.6725C10.7971 27.0017 10.615 27.4267 10.615 27.9475C10.615 28.4342 10.7971 28.8508 11.1612 29.1975C11.5262 29.545 11.9342 29.7188 12.385 29.7188H17.2287Z" fill="#3477B4"/>
</svg>
