<svg width="44" height="40" viewBox="0 0 44 40" fill="none" xmlns="http://www.w3.org/2000/svg">
<path d="M19.2534 32.2922L7.40853 21.5422C7.16487 21.3475 6.98194 21.1112 6.85975 20.8332C6.73755 20.5559 6.67645 20.2642 6.67645 19.9582C6.67645 19.6809 6.73755 19.4102 6.85975 19.1462C6.98194 18.8822 7.16487 18.6529 7.40853 18.4582L19.2984 7.5832C19.7557 7.16653 20.3275 6.9652 21.0139 6.9792C21.6995 6.9932 22.271 7.22253 22.7283 7.6672C23.1856 8.1112 23.4219 8.63886 23.4373 9.2502C23.4527 9.86153 23.2163 10.3755 22.7283 10.7922L15.0454 17.7922H33.8872C34.5581 17.7922 35.1223 18.0005 35.5796 18.4172C36.0369 18.8339 36.2656 19.3475 36.2656 19.9582C36.2656 20.6249 36.0369 21.1665 35.5796 21.5832C35.1223 21.9999 34.5581 22.2082 33.8872 22.2082H15.0454L22.7744 29.2082C23.2317 29.6529 23.4603 30.1809 23.4603 30.7922C23.4603 31.4029 23.2163 31.9029 22.7283 32.2922C22.241 32.7362 21.6618 32.9582 20.9908 32.9582C20.3199 32.9582 19.7407 32.7362 19.2534 32.2922Z" fill="white"/>
</svg>
