<svg width="24" height="24" viewBox="0 0 24 24" fill="none" xmlns="http://www.w3.org/2000/svg">
<path d="M12 11.5998C10.6668 11.5998 9.57524 11.1708 8.72524 10.3128C7.87524 9.45444 7.45024 8.36684 7.45024 7.05004C7.45024 5.73324 7.87524 4.64584 8.72524 3.78784C9.57524 2.92944 10.6668 2.50024 12 2.50024C13.3168 2.50024 14.4084 2.92524 15.2748 3.77524C16.1416 4.62524 16.575 5.71684 16.575 7.05004C16.575 8.36684 16.1458 9.45444 15.2874 10.3128C14.429 11.1708 13.3332 11.5998 12 11.5998ZM5.89984 21.1248C5.16664 21.1248 4.54164 20.8708 4.02484 20.3628C3.50844 19.8544 3.25024 19.2252 3.25024 18.4752V17.8752C3.25024 17.1252 3.44184 16.4626 3.82504 15.8874C4.20824 15.3126 4.71664 14.8752 5.35024 14.5752C6.46664 14.0252 7.57484 13.621 8.67484 13.3626C9.77484 13.1042 10.8832 12.975 12 12.975C13.1332 12.975 14.2456 13.1124 15.3372 13.3872C16.4292 13.6624 17.5334 14.0584 18.6498 14.5752C19.2998 14.8416 19.8166 15.2666 20.2002 15.8502C20.5834 16.4334 20.775 17.1084 20.775 17.8752V18.4752C20.775 19.2252 20.5166 19.8544 19.9998 20.3628C19.4834 20.8708 18.8502 21.1248 18.1002 21.1248H5.89984Z" fill="#3477B4"/>
</svg>
