<svg width="50" height="50" viewBox="0 0 50 50" fill="none" xmlns="http://www.w3.org/2000/svg">
<g clip-path="url(#clip0_1_110)">
<path d="M2.03124 38.2288C1.23291 38.2288 0.573324 37.9683 0.0524902 37.4475C-0.468343 36.9267 -0.72876 36.2496 -0.72876 35.4163V34.5312C-0.72876 32.8996 0.0608236 31.5888 1.63999 30.5988C3.21999 29.6096 5.32957 29.115 7.96874 29.115H9.00999C8.59332 29.8442 8.27249 30.6342 8.04749 31.485C7.82166 32.335 7.70874 33.2288 7.70874 34.1663V38.2288H2.03124ZM14.5312 38.2288C13.7329 38.2288 13.0733 37.9683 12.5525 37.4475C12.0317 36.9267 11.7712 36.2496 11.7712 35.4163V34.1663C11.7712 31.6663 12.9862 29.6525 15.4162 28.125C17.8471 26.5975 21.0417 25.8337 25 25.8337C28.9583 25.8337 32.1529 26.5975 34.5837 28.125C37.0137 29.6525 38.2287 31.6663 38.2287 34.1663V35.4163C38.2287 36.2496 37.9683 36.9267 37.4475 37.4475C36.9267 37.9683 36.2671 38.2288 35.4687 38.2288H14.5312ZM42.2912 38.2288V34.1663C42.2912 33.2638 42.1871 32.37 41.9787 31.485C41.7704 30.5992 41.4579 29.7917 41.0412 29.0625C41.1454 29.0975 41.2933 29.115 41.485 29.115H42.0312C44.6354 29.115 46.7362 29.6096 48.3337 30.5988C49.9304 31.5888 50.7287 32.9171 50.7287 34.5837V35.4163C50.7287 36.2496 50.4683 36.9267 49.9475 37.4475C49.4267 37.9683 48.7671 38.2288 47.9687 38.2288H42.2912ZM7.96874 27.5525C6.78791 27.5525 5.78082 27.1442 4.94749 26.3275C4.11416 25.5117 3.69749 24.4963 3.69749 23.2812C3.69749 22.1004 4.11416 21.0933 4.94749 20.26C5.78082 19.4267 6.80541 19.01 8.02124 19.01C9.20124 19.01 10.2079 19.4267 11.0412 20.26C11.8746 21.0933 12.2912 22.1004 12.2912 23.2812C12.2912 24.4963 11.8746 25.5117 11.0412 26.3275C10.2079 27.1442 9.18374 27.5525 7.96874 27.5525ZM42.0312 27.5525C40.8162 27.5525 39.8008 27.1442 38.985 26.3275C38.1683 25.5117 37.76 24.4963 37.76 23.2812C37.76 22.1004 38.1767 21.0933 39.01 20.26C39.8433 19.4267 40.8504 19.01 42.0312 19.01C43.2121 19.01 44.2192 19.4267 45.0525 20.26C45.8858 21.0933 46.3025 22.1004 46.3025 23.2812C46.3025 24.4963 45.8858 25.5117 45.0525 26.3275C44.2192 27.1442 43.2121 27.5525 42.0312 27.5525ZM25 24.2712C23.09 24.2712 21.4492 23.5854 20.0775 22.2137C18.7067 20.8421 18.0212 19.2013 18.0212 17.2913C18.0212 15.3821 18.7154 13.7417 20.1037 12.37C21.4929 10.9983 23.125 10.3125 25 10.3125C26.91 10.3125 28.5508 11.0071 29.9225 12.3962C31.2933 13.7846 31.9787 15.4338 31.9787 17.3438C31.9787 19.2537 31.2846 20.8858 29.8962 22.24C28.5071 23.5942 26.875 24.2712 25 24.2712Z" fill="#3477B4"/>
</g>
<defs>
<clipPath id="clip0_1_110">
<rect width="50" height="50" fill="white"/>
</clipPath>
</defs>
</svg>
