<svg width="191" height="92" viewBox="0 0 191 92" fill="none" xmlns="http://www.w3.org/2000/svg">
<path d="M20.4262 15.2666C21.5505 15.2666 22.5083 15.6629 23.2996 16.4554C24.0908 17.2479 24.4864 18.2073 24.4864 19.3335C24.4864 20.4597 24.0908 21.4191 23.2996 22.2116C22.5083 23.0042 21.5505 23.4004 20.4262 23.4004C19.3434 23.4004 18.4065 23.0042 17.6152 22.2116C16.824 21.4191 16.4284 20.4597 16.4284 19.3335C16.4284 18.2073 16.824 17.2479 17.6152 16.4554C18.4065 15.6629 19.3434 15.2666 20.4262 15.2666ZM41.6644 16.0174V38.4168H44.7877V44.7987H41.6019C41.2688 49.7207 39.4156 53.4748 36.0425 56.0609C32.8776 58.5219 28.8382 59.7525 23.9242 59.7525H17.7402C12.4098 59.7525 8.16214 58.376 4.99723 55.623C1.66574 52.7031 0 48.5945 0 43.2971V32.0974L3.87285 28.969H7.62077V42.6088C7.62077 46.5715 8.5994 49.3453 10.5566 50.9304C12.5555 52.5571 15.9911 53.3705 20.8634 53.3705C25.5692 53.3705 28.8798 52.6406 30.7954 51.1806C32.9609 49.5122 34.0436 46.6549 34.0436 42.6088V16.0174H41.6644Z" fill="black"/>
<path d="M63.415 0V26.5288C68.9953 18.979 75.9289 15.204 84.216 15.204C89.1716 15.204 93.2526 16.7891 96.4592 19.9592C99.4159 22.8373 100.894 26.4037 100.894 30.6583V37.9162C100.894 39.8767 100.165 41.5452 98.7079 42.9217C97.3754 44.173 95.8554 44.7987 94.148 44.7987H44.6129V38.4168H55.8567V0H63.415ZM93.2735 31.0337C93.2318 28.4476 92.3781 26.362 90.7124 24.7769C88.7968 22.7748 86.194 21.7737 82.9042 21.7737C79.5727 21.7737 76.387 22.879 73.347 25.0898C69.4325 27.9262 66.1219 32.3685 63.415 38.4168H91.7118C92.7529 38.4168 93.2735 37.8954 93.2735 36.8526V31.0337Z" fill="black"/>
<path d="M116.27 0V43.2345L112.397 46.3629H108.649V0H116.27Z" fill="black"/>
<path d="M138.181 44.7987C133.6 44.7987 129.998 43.2345 127.374 40.1061C125.167 37.4365 124.064 34.1413 124.064 30.2204C124.064 25.5486 125.375 21.8988 127.999 19.2709C130.747 16.6014 134.266 15.2666 138.555 15.2666C141.679 15.2666 144.386 16.0383 146.676 17.5816C149.674 19.7506 151.173 22.8373 151.173 26.8417V38.4168H153.172V44.7987H151.111C150.82 49.3036 149.237 52.8283 146.364 55.3727C144.365 57.1663 141.97 58.3968 139.18 59.0642C137.223 59.523 135.307 59.7525 133.433 59.7525C132.809 59.7525 131.913 59.7107 130.747 59.6273H130.56L127.374 55.6855V52.9325C129.082 53.2245 130.685 53.3705 132.184 53.3705C139.014 53.3705 142.741 50.5132 143.365 44.7987H138.181ZM143.553 26.8417C143.553 25.1732 143.011 23.8593 141.929 22.8999C140.971 22.0657 139.846 21.6485 138.555 21.6485C136.432 21.6485 134.745 22.3993 133.496 23.901C132.246 25.4026 131.622 27.4674 131.622 30.0952C131.622 32.6396 132.309 34.6627 133.683 36.1643C135.057 37.6659 136.931 38.4168 139.305 38.4168H143.553V26.8417Z" fill="black"/>
<path d="M163.89 26.8417C163.89 22.879 165.264 19.8758 168.013 17.8319C170.178 16.1634 173.135 15.3292 176.883 15.3292C180.547 15.3292 183.65 16.4137 186.19 18.5827C189.397 21.3357 191 25.2358 191 30.2829C191 35.0381 189.73 38.9799 187.19 42.1083C184.733 45.1532 181.547 46.6757 177.632 46.6757C174.176 46.6757 171.448 45.3827 169.449 42.7965C168.117 44.1313 166.493 44.7987 164.577 44.7987H152.646V38.4168H162.266C162.724 38.4168 163.12 38.2499 163.453 37.9162C163.744 37.6242 163.89 37.2697 163.89 36.8526V26.8417ZM171.448 37.7285C172.989 39.397 174.759 40.2312 176.758 40.2312C178.715 40.2312 180.318 39.3761 181.568 37.6659C182.817 35.914 183.442 33.6616 183.442 30.9086C183.442 27.9053 182.755 25.5486 181.38 23.8384C180.131 22.3785 178.507 21.6485 176.508 21.6485C175.009 21.6485 173.822 22.1282 172.948 23.0876C171.948 24.0053 171.448 25.2566 171.448 26.8417V37.7285Z" fill="black"/>
<path d="M12.6388 91.7247H10.2402L5.14298 76.7084V91.7247H2.99417V73.8052H6.14243L11.4645 89.3972L16.6616 73.8052H19.8348V91.7247H17.661V76.7084L12.6388 91.7247Z" fill="black"/>
<path d="M44.8799 73.8052H47.1537V86.0936C47.1537 88.029 46.4457 89.5307 45.0298 90.5985C43.8138 91.5328 42.2231 92 40.2575 92C37.9921 92 36.243 91.4077 35.0104 90.2231C33.9443 89.1719 33.4113 87.7954 33.4113 86.0936V73.8052H35.685V86.0936C35.685 87.3283 36.0848 88.2876 36.8844 88.9717C37.6839 89.6391 38.8083 89.9728 40.2575 89.9728C41.79 89.9728 42.9726 89.5891 43.8055 88.8215C44.5218 88.1375 44.8799 87.2281 44.8799 86.0936V73.8052Z" fill="black"/>
<path d="M77.0617 91.7247H74.5631L70.4404 77.0087L66.4176 91.7247H63.919L59.3465 73.8052H61.8951L65.2682 88.346L69.241 73.8052H71.6897L75.7624 88.346L79.0606 73.8052H81.5842L77.0617 91.7247Z" fill="black"/>
<path d="M103.341 86.3439H96.4449L94.5459 91.7247H92.1223L98.4937 73.8052H101.442L107.714 91.7247H105.19L103.341 86.3439ZM102.691 84.4168L99.9429 76.2829L97.0196 84.4168H102.691Z" fill="black"/>
<path d="M126.51 75.8324V91.7247H124.236V75.8324H118.34V73.8052H132.357V75.8324H126.51Z" fill="black"/>
<path d="M147.014 83.5658V89.6975H157.558V91.7247H144.74V73.8052H157.133V75.8324H147.014V81.5386H156.758V83.5658H147.014Z" fill="black"/>
<path d="M184.5 73.8052V91.7247H181.951L172.682 77.1839V91.7247H170.533V73.8052H173.006L182.351 88.4461V73.8052H184.5Z" fill="black"/>
</svg>
